<?xml version="1.0" encoding="UTF-8" standalone="no"?>
<!DOCTYPE svg PUBLIC "-//W3C//DTD SVG 1.1//EN"
 "http://www.w3.org/Graphics/SVG/1.1/DTD/svg11.dtd">
<!-- Generated by graphviz version 2.38.0 (20140413.2041)
 -->
<!-- Title: controllers_diagram Pages: 1 -->
<svg width="434pt" height="376pt"
 viewBox="0.00 0.00 434.00 375.50" xmlns="http://www.w3.org/2000/svg" xmlns:xlink="http://www.w3.org/1999/xlink">
<g id="graph0" class="graph" transform="scale(1 1) rotate(0) translate(139.5 252.5)">
<title>controllers_diagram</title>
<polygon fill="none" stroke="none" points="-139.5,123 -139.5,-252.5 294.5,-252.5 294.5,123 -139.5,123"/>
<!-- _diagram_info -->
<g id="node1" class="node"><title>_diagram_info</title>
<text text-anchor="start" x="-127.5" y="-199.6" font-family="Times New Roman,serif" font-size="13.00">Controllers diagram</text>
<text text-anchor="start" x="-127.5" y="-185.6" font-family="Times New Roman,serif" font-size="13.00">Date: Jun 25 2017 &#45; 23:16</text>
<text text-anchor="start" x="-127.5" y="-171.6" font-family="Times New Roman,serif" font-size="13.00">Migration version: 20170626001135</text>
<text text-anchor="start" x="-127.5" y="-157.6" font-family="Times New Roman,serif" font-size="13.00">Generated by RailRoady 1.5.3</text>
<text text-anchor="start" x="-127.5" y="-143.6" font-family="Times New Roman,serif" font-size="13.00">http://railroady.prestonlee.com</text>
</g>
<!-- ApplicationController -->
<g id="node2" class="node"><title>ApplicationController</title>
<path fill="none" stroke="black" d="M165.5,-154C165.5,-154 278.5,-154 278.5,-154 284.5,-154 290.5,-160 290.5,-166 290.5,-166 290.5,-236 290.5,-236 290.5,-242 284.5,-248 278.5,-248 278.5,-248 165.5,-248 165.5,-248 159.5,-248 153.5,-242 153.5,-236 153.5,-236 153.5,-166 153.5,-166 153.5,-160 159.5,-154 165.5,-154"/>
<text text-anchor="middle" x="222" y="-232.8" font-family="Times New Roman,serif" font-size="14.00">ApplicationController</text>
<polyline fill="none" stroke="black" points="153.5,-225 290.5,-225 "/>
<polyline fill="none" stroke="black" points="153.5,-201 290.5,-201 "/>
<polyline fill="none" stroke="black" points="153.5,-177 290.5,-177 "/>
<text text-anchor="start" x="161.5" y="-161.8" font-family="Times New Roman,serif" font-size="14.00">_layout</text>
</g>
<!-- DaysController -->
<g id="node3" class="node"><title>DaysController</title>
<path fill="none" stroke="black" d="M114.5,101.5C114.5,101.5 197.5,101.5 197.5,101.5 203.5,101.5 209.5,95.5 209.5,89.5 209.5,89.5 209.5,-99.5 209.5,-99.5 209.5,-105.5 203.5,-111.5 197.5,-111.5 197.5,-111.5 114.5,-111.5 114.5,-111.5 108.5,-111.5 102.5,-105.5 102.5,-99.5 102.5,-99.5 102.5,89.5 102.5,89.5 102.5,95.5 108.5,101.5 114.5,101.5"/>
<text text-anchor="middle" x="156" y="-96.3" font-family="Times New Roman,serif" font-size="14.00">DaysController</text>
<polyline fill="none" stroke="black" points="102.5,-88.5 209.5,-88.5 "/>
<text text-anchor="start" x="110.5" y="-73.3" font-family="Times New Roman,serif" font-size="14.00">create</text>
<text text-anchor="start" x="110.5" y="-58.3" font-family="Times New Roman,serif" font-size="14.00">destroy</text>
<text text-anchor="start" x="110.5" y="-43.3" font-family="Times New Roman,serif" font-size="14.00">edit</text>
<text text-anchor="start" x="110.5" y="-28.3" font-family="Times New Roman,serif" font-size="14.00">import</text>
<text text-anchor="start" x="110.5" y="-13.3" font-family="Times New Roman,serif" font-size="14.00">index</text>
<text text-anchor="start" x="110.5" y="1.7" font-family="Times New Roman,serif" font-size="14.00">new</text>
<text text-anchor="start" x="110.5" y="16.7" font-family="Times New Roman,serif" font-size="14.00">show</text>
<text text-anchor="start" x="110.5" y="31.7" font-family="Times New Roman,serif" font-size="14.00">update</text>
<polyline fill="none" stroke="black" points="102.5,39.5 209.5,39.5 "/>
<polyline fill="none" stroke="black" points="102.5,63.5 209.5,63.5 "/>
<text text-anchor="start" x="110.5" y="78.7" font-family="Times New Roman,serif" font-size="14.00">_layout</text>
<text text-anchor="start" x="110.5" y="93.7" font-family="Times New Roman,serif" font-size="14.00">allowed_params</text>
</g>
<!-- LocationsController -->
<g id="node4" class="node"><title>LocationsController</title>
<path fill="none" stroke="black" d="M-56,118.5C-56,118.5 48,118.5 48,118.5 54,118.5 60,112.5 60,106.5 60,106.5 60,-82.5 60,-82.5 60,-88.5 54,-94.5 48,-94.5 48,-94.5 -56,-94.5 -56,-94.5 -62,-94.5 -68,-88.5 -68,-82.5 -68,-82.5 -68,106.5 -68,106.5 -68,112.5 -62,118.5 -56,118.5"/>
<text text-anchor="middle" x="-4" y="-79.3" font-family="Times New Roman,serif" font-size="14.00">LocationsController</text>
<polyline fill="none" stroke="black" points="-68,-71.5 60,-71.5 "/>
<text text-anchor="start" x="-60" y="-56.3" font-family="Times New Roman,serif" font-size="14.00">create</text>
<text text-anchor="start" x="-60" y="-41.3" font-family="Times New Roman,serif" font-size="14.00">destroy</text>
<text text-anchor="start" x="-60" y="-26.3" font-family="Times New Roman,serif" font-size="14.00">edit</text>
<text text-anchor="start" x="-60" y="-11.3" font-family="Times New Roman,serif" font-size="14.00">import</text>
<text text-anchor="start" x="-60" y="3.7" font-family="Times New Roman,serif" font-size="14.00">index</text>
<text text-anchor="start" x="-60" y="18.7" font-family="Times New Roman,serif" font-size="14.00">new</text>
<text text-anchor="start" x="-60" y="33.7" font-family="Times New Roman,serif" font-size="14.00">show</text>
<text text-anchor="start" x="-60" y="48.7" font-family="Times New Roman,serif" font-size="14.00">update</text>
<polyline fill="none" stroke="black" points="-68,56.5 60,56.5 "/>
<polyline fill="none" stroke="black" points="-68,80.5 60,80.5 "/>
<text text-anchor="start" x="-60" y="95.7" font-family="Times New Roman,serif" font-size="14.00">_layout</text>
<text text-anchor="start" x="-60" y="110.7" font-family="Times New Roman,serif" font-size="14.00">allowed_params</text>
</g>
</g>
</svg>
