<?xml version="1.0" encoding="UTF-8" standalone="no"?>
<!DOCTYPE svg PUBLIC "-//W3C//DTD SVG 1.1//EN"
 "http://www.w3.org/Graphics/SVG/1.1/DTD/svg11.dtd">
<!-- Generated by graphviz version 2.38.0 (20140413.2041)
 -->
<!-- Title: models_diagram Pages: 1 -->
<svg width="340pt" height="230pt"
 viewBox="0.00 0.00 340.40 230.00" xmlns="http://www.w3.org/2000/svg" xmlns:xlink="http://www.w3.org/1999/xlink">
<g id="graph0" class="graph" transform="scale(1 1) rotate(0) translate(4 226)">
<title>models_diagram</title>
<polygon fill="none" stroke="none" points="-4,4 -4,-226 336.396,-226 336.396,4 -4,4"/>
<!-- _diagram_info -->
<g id="node1" class="node"><title>_diagram_info</title>
<text text-anchor="start" x="8" y="-207.6" font-family="Times New Roman,serif" font-size="13.00">Models diagram</text>
<text text-anchor="start" x="8" y="-193.6" font-family="Times New Roman,serif" font-size="13.00">Date: Jun 25 2017 &#45; 23:16</text>
<text text-anchor="start" x="8" y="-179.6" font-family="Times New Roman,serif" font-size="13.00">Migration version: 20170626001135</text>
<text text-anchor="start" x="8" y="-165.6" font-family="Times New Roman,serif" font-size="13.00">Generated by RailRoady 1.5.3</text>
<text text-anchor="start" x="8" y="-151.6" font-family="Times New Roman,serif" font-size="13.00">http://railroady.prestonlee.com</text>
</g>
<!-- Appointment -->
<g id="node2" class="node"><title>Appointment</title>
<ellipse fill="none" stroke="black" cx="253.5" cy="-18" rx="57.6901" ry="18"/>
<text text-anchor="middle" x="253.5" y="-14.3" font-family="Times New Roman,serif" font-size="14.00">Appointment</text>
</g>
<!-- Day -->
<g id="node3" class="node"><title>Day</title>
<ellipse fill="none" stroke="black" cx="254.5" cy="-183" rx="27" ry="18"/>
<text text-anchor="middle" x="254.5" y="-179.3" font-family="Times New Roman,serif" font-size="14.00">Day</text>
</g>
<!-- Day&#45;&gt;Appointment -->
<g id="edge1" class="edge"><title>Day&#45;&gt;Appointment</title>
<path fill="none" stroke="#fec466" d="M246.411,-157.288C240.134,-135.004 233.17,-101.325 237.5,-72 238.798,-63.2121 241.244,-53.8616 243.84,-45.5001"/>
<ellipse fill="none" stroke="#fec466" cx="247.625" cy="-161.402" rx="4.00001" ry="4.00001"/>
<polygon fill="#fec466" stroke="#fec466" points="243.876,-45.3906 251.287,-37.3078 245.445,-40.6431 247.014,-35.8957 247.014,-35.8957 247.014,-35.8957 245.445,-40.6431 242.741,-34.4836 243.876,-45.3906 243.876,-45.3906"/>
</g>
<!-- Location -->
<g id="node4" class="node"><title>Location</title>
<ellipse fill="none" stroke="black" cx="289.5" cy="-90" rx="42.7926" ry="18"/>
<text text-anchor="middle" x="289.5" y="-86.3" font-family="Times New Roman,serif" font-size="14.00">Location</text>
</g>
<!-- Day&#45;&gt;Location -->
<g id="edge2" class="edge"><title>Day&#45;&gt;Location</title>
<path fill="none" stroke="#f3b0fb" d="M264.578,-155.797C269.211,-143.752 274.695,-129.493 279.338,-117.422"/>
<polygon fill="#f3b0fb" stroke="#f3b0fb" points="264.509,-155.976 256.719,-163.694 262.714,-160.642 260.92,-165.309 260.92,-165.309 260.92,-165.309 262.714,-160.642 265.12,-166.925 264.509,-155.976 264.509,-155.976"/>
<polygon fill="#f3b0fb" stroke="#f3b0fb" points="279.413,-117.227 287.203,-109.509 281.208,-112.56 283.003,-107.893 283.003,-107.893 283.003,-107.893 281.208,-112.56 278.803,-106.278 279.413,-117.227 279.413,-117.227"/>
</g>
<!-- Location&#45;&gt;Appointment -->
<g id="edge3" class="edge"><title>Location&#45;&gt;Appointment</title>
<path fill="none" stroke="#923561" d="M277.068,-64.8269C273.822,-58.5146 270.307,-51.6811 267.008,-45.2658"/>
<ellipse fill="none" stroke="#923561" cx="278.956" cy="-68.4978" rx="4.00002" ry="4.00002"/>
<polygon fill="#923561" stroke="#923561" points="266.958,-45.1682 266.386,-34.2172 264.671,-40.7217 262.384,-36.2753 262.384,-36.2753 262.384,-36.2753 264.671,-40.7217 258.383,-38.3334 266.958,-45.1682 266.958,-45.1682"/>
</g>
</g>
</svg>
