<?xml version="1.0" encoding="UTF-8" standalone="no"?>
<!DOCTYPE svg PUBLIC "-//W3C//DTD SVG 1.1//EN"
 "http://www.w3.org/Graphics/SVG/1.1/DTD/svg11.dtd">
<!-- Generated by graphviz version 2.38.0 (20140413.2041)
 -->
<!-- Title: models_diagram Pages: 1 -->
<svg width="305pt" height="158pt"
 viewBox="0.00 0.00 305.40 158.00" xmlns="http://www.w3.org/2000/svg" xmlns:xlink="http://www.w3.org/1999/xlink">
<g id="graph0" class="graph" transform="scale(1 1) rotate(0) translate(4 154)">
<title>models_diagram</title>
<polygon fill="none" stroke="none" points="-4,4 -4,-154 301.396,-154 301.396,4 -4,4"/>
<!-- _diagram_info -->
<g id="node1" class="node"><title>_diagram_info</title>
<text text-anchor="start" x="8" y="-135.6" font-family="Times New Roman,serif" font-size="13.00">Models diagram</text>
<text text-anchor="start" x="8" y="-121.6" font-family="Times New Roman,serif" font-size="13.00">Date: Jun 22 2017 &#45; 22:56</text>
<text text-anchor="start" x="8" y="-107.6" font-family="Times New Roman,serif" font-size="13.00">Migration version: 20170619191842</text>
<text text-anchor="start" x="8" y="-93.6" font-family="Times New Roman,serif" font-size="13.00">Generated by RailRoady 1.5.3</text>
<text text-anchor="start" x="8" y="-79.6" font-family="Times New Roman,serif" font-size="13.00">http://railroady.prestonlee.com</text>
</g>
<!-- Day -->
<g id="node2" class="node"><title>Day</title>
<ellipse fill="none" stroke="black" cx="254.5" cy="-111" rx="27" ry="18"/>
<text text-anchor="middle" x="254.5" y="-107.3" font-family="Times New Roman,serif" font-size="14.00">Day</text>
</g>
<!-- Location -->
<g id="node3" class="node"><title>Location</title>
<ellipse fill="none" stroke="black" cx="254.5" cy="-18" rx="42.7926" ry="18"/>
<text text-anchor="middle" x="254.5" y="-14.3" font-family="Times New Roman,serif" font-size="14.00">Location</text>
</g>
<!-- Day&#45;&gt;Location -->
<g id="edge1" class="edge"><title>Day&#45;&gt;Location</title>
<path fill="none" stroke="#622d2a" d="M254.5,-82.5485C254.5,-71.0829 254.5,-57.7923 254.5,-46.3387"/>
<polygon fill="#622d2a" stroke="#622d2a" points="254.5,-82.8836 250,-92.8836 254.5,-87.8836 254.5,-92.8836 254.5,-92.8836 254.5,-92.8836 254.5,-87.8836 259,-92.8836 254.5,-82.8836 254.5,-82.8836"/>
<polygon fill="#622d2a" stroke="#622d2a" points="254.5,-46.0397 259,-36.0396 254.5,-41.0397 254.5,-36.0397 254.5,-36.0397 254.5,-36.0397 254.5,-41.0397 250,-36.0397 254.5,-46.0397 254.5,-46.0397"/>
</g>
</g>
</svg>
