<?xml version="1.0" encoding="UTF-8" standalone="no"?>
<!DOCTYPE svg PUBLIC "-//W3C//DTD SVG 1.1//EN"
 "http://www.w3.org/Graphics/SVG/1.1/DTD/svg11.dtd">
<!-- Generated by graphviz version 2.38.0 (20140413.2041)
 -->
<!-- Title: models_diagram Pages: 1 -->
<svg width="368pt" height="348pt"
 viewBox="0.00 0.00 367.50 348.00" xmlns="http://www.w3.org/2000/svg" xmlns:xlink="http://www.w3.org/1999/xlink">
<g id="graph0" class="graph" transform="scale(1 1) rotate(0) translate(4 344)">
<title>models_diagram</title>
<polygon fill="none" stroke="none" points="-4,4 -4,-344 363.5,-344 363.5,4 -4,4"/>
<!-- _diagram_info -->
<g id="node1" class="node"><title>_diagram_info</title>
<text text-anchor="start" x="8" y="-318.6" font-family="Times New Roman,serif" font-size="13.00">Models diagram</text>
<text text-anchor="start" x="8" y="-304.6" font-family="Times New Roman,serif" font-size="13.00">Date: Jun 22 2017 &#45; 22:56</text>
<text text-anchor="start" x="8" y="-290.6" font-family="Times New Roman,serif" font-size="13.00">Migration version: 20170619191842</text>
<text text-anchor="start" x="8" y="-276.6" font-family="Times New Roman,serif" font-size="13.00">Generated by RailRoady 1.5.3</text>
<text text-anchor="start" x="8" y="-262.6" font-family="Times New Roman,serif" font-size="13.00">http://railroady.prestonlee.com</text>
</g>
<!-- Day -->
<g id="node2" class="node"><title>Day</title>
<path fill="none" stroke="black" d="M239.5,-248.5C239.5,-248.5 347.5,-248.5 347.5,-248.5 353.5,-248.5 359.5,-254.5 359.5,-260.5 359.5,-260.5 359.5,-327.5 359.5,-327.5 359.5,-333.5 353.5,-339.5 347.5,-339.5 347.5,-339.5 239.5,-339.5 239.5,-339.5 233.5,-339.5 227.5,-333.5 227.5,-327.5 227.5,-327.5 227.5,-260.5 227.5,-260.5 227.5,-254.5 233.5,-248.5 239.5,-248.5"/>
<text text-anchor="middle" x="293.5" y="-324.3" font-family="Times New Roman,serif" font-size="14.00">Day</text>
<polyline fill="none" stroke="black" points="227.5,-316.5 359.5,-316.5 "/>
<text text-anchor="start" x="235.5" y="-301.3" font-family="Times New Roman,serif" font-size="14.00">id :INTEGER</text>
<text text-anchor="start" x="235.5" y="-286.3" font-family="Times New Roman,serif" font-size="14.00">date :date</text>
<text text-anchor="start" x="235.5" y="-271.3" font-family="Times New Roman,serif" font-size="14.00">created_at :datetime</text>
<text text-anchor="start" x="235.5" y="-256.3" font-family="Times New Roman,serif" font-size="14.00">updated_at :datetime</text>
</g>
<!-- Location -->
<g id="node3" class="node"><title>Location</title>
<path fill="none" stroke="black" d="M239.5,-0.5C239.5,-0.5 347.5,-0.5 347.5,-0.5 353.5,-0.5 359.5,-6.5 359.5,-12.5 359.5,-12.5 359.5,-199.5 359.5,-199.5 359.5,-205.5 353.5,-211.5 347.5,-211.5 347.5,-211.5 239.5,-211.5 239.5,-211.5 233.5,-211.5 227.5,-205.5 227.5,-199.5 227.5,-199.5 227.5,-12.5 227.5,-12.5 227.5,-6.5 233.5,-0.5 239.5,-0.5"/>
<text text-anchor="middle" x="293.5" y="-196.3" font-family="Times New Roman,serif" font-size="14.00">Location</text>
<polyline fill="none" stroke="black" points="227.5,-188.5 359.5,-188.5 "/>
<text text-anchor="start" x="235.5" y="-173.3" font-family="Times New Roman,serif" font-size="14.00">id :INTEGER</text>
<text text-anchor="start" x="235.5" y="-158.3" font-family="Times New Roman,serif" font-size="14.00">client :text</text>
<text text-anchor="start" x="235.5" y="-143.3" font-family="Times New Roman,serif" font-size="14.00">city :text</text>
<text text-anchor="start" x="235.5" y="-128.3" font-family="Times New Roman,serif" font-size="14.00">ranchfield :text</text>
<text text-anchor="start" x="235.5" y="-113.3" font-family="Times New Roman,serif" font-size="14.00">grower :text</text>
<text text-anchor="start" x="235.5" y="-98.3" font-family="Times New Roman,serif" font-size="14.00">siteblock :text</text>
<text text-anchor="start" x="235.5" y="-83.3" font-family="Times New Roman,serif" font-size="14.00">variety :text</text>
<text text-anchor="start" x="235.5" y="-68.3" font-family="Times New Roman,serif" font-size="14.00">acres :integer</text>
<text text-anchor="start" x="235.5" y="-53.3" font-family="Times New Roman,serif" font-size="14.00">latitude :float</text>
<text text-anchor="start" x="235.5" y="-38.3" font-family="Times New Roman,serif" font-size="14.00">longitude :float</text>
<text text-anchor="start" x="235.5" y="-23.3" font-family="Times New Roman,serif" font-size="14.00">created_at :datetime</text>
<text text-anchor="start" x="235.5" y="-8.3" font-family="Times New Roman,serif" font-size="14.00">updated_at :datetime</text>
</g>
<!-- Day&#45;&gt;Location -->
<g id="edge1" class="edge"><title>Day&#45;&gt;Location</title>
<path fill="none" stroke="#fb62f5" d="M293.5,-238.356C293.5,-233.04 293.5,-227.522 293.5,-221.89"/>
<polygon fill="#fb62f5" stroke="#fb62f5" points="293.5,-238.448 289,-248.448 293.5,-243.448 293.5,-248.448 293.5,-248.448 293.5,-248.448 293.5,-243.448 298,-248.448 293.5,-238.448 293.5,-238.448"/>
<polygon fill="#fb62f5" stroke="#fb62f5" points="293.5,-221.649 298,-211.649 293.5,-216.649 293.5,-211.649 293.5,-211.649 293.5,-211.649 293.5,-216.649 289,-211.649 293.5,-221.649 293.5,-221.649"/>
</g>
</g>
</svg>
