<?xml version="1.0" encoding="UTF-8" standalone="no"?>
<!DOCTYPE svg PUBLIC "-//W3C//DTD SVG 1.1//EN"
 "http://www.w3.org/Graphics/SVG/1.1/DTD/svg11.dtd">
<!-- Generated by graphviz version 2.38.0 (20140413.2041)
 -->
<!-- Title: models_diagram Pages: 1 -->
<svg width="415pt" height="506pt"
 viewBox="0.00 0.00 414.50 506.00" xmlns="http://www.w3.org/2000/svg" xmlns:xlink="http://www.w3.org/1999/xlink">
<g id="graph0" class="graph" transform="scale(1 1) rotate(0) translate(4 502)">
<title>models_diagram</title>
<polygon fill="none" stroke="none" points="-4,4 -4,-502 410.5,-502 410.5,4 -4,4"/>
<!-- _diagram_info -->
<g id="node1" class="node"><title>_diagram_info</title>
<text text-anchor="start" x="8" y="-476.6" font-family="Times New Roman,serif" font-size="13.00">Models diagram</text>
<text text-anchor="start" x="8" y="-462.6" font-family="Times New Roman,serif" font-size="13.00">Date: Jun 25 2017 &#45; 23:16</text>
<text text-anchor="start" x="8" y="-448.6" font-family="Times New Roman,serif" font-size="13.00">Migration version: 20170626001135</text>
<text text-anchor="start" x="8" y="-434.6" font-family="Times New Roman,serif" font-size="13.00">Generated by RailRoady 1.5.3</text>
<text text-anchor="start" x="8" y="-420.6" font-family="Times New Roman,serif" font-size="13.00">http://railroady.prestonlee.com</text>
</g>
<!-- Appointment -->
<g id="node2" class="node"><title>Appointment</title>
<path fill="none" stroke="black" d="M239.5,-0.5C239.5,-0.5 347.5,-0.5 347.5,-0.5 353.5,-0.5 359.5,-6.5 359.5,-12.5 359.5,-12.5 359.5,-109.5 359.5,-109.5 359.5,-115.5 353.5,-121.5 347.5,-121.5 347.5,-121.5 239.5,-121.5 239.5,-121.5 233.5,-121.5 227.5,-115.5 227.5,-109.5 227.5,-109.5 227.5,-12.5 227.5,-12.5 227.5,-6.5 233.5,-0.5 239.5,-0.5"/>
<text text-anchor="middle" x="293.5" y="-106.3" font-family="Times New Roman,serif" font-size="14.00">Appointment</text>
<polyline fill="none" stroke="black" points="227.5,-98.5 359.5,-98.5 "/>
<text text-anchor="start" x="235.5" y="-83.3" font-family="Times New Roman,serif" font-size="14.00">id :INTEGER</text>
<text text-anchor="start" x="235.5" y="-68.3" font-family="Times New Roman,serif" font-size="14.00">pulls :integer</text>
<text text-anchor="start" x="235.5" y="-53.3" font-family="Times New Roman,serif" font-size="14.00">created_at :datetime</text>
<text text-anchor="start" x="235.5" y="-38.3" font-family="Times New Roman,serif" font-size="14.00">updated_at :datetime</text>
<text text-anchor="start" x="235.5" y="-23.3" font-family="Times New Roman,serif" font-size="14.00">day_id :integer</text>
<text text-anchor="start" x="235.5" y="-8.3" font-family="Times New Roman,serif" font-size="14.00">location_id :integer</text>
</g>
<!-- Day -->
<g id="node3" class="node"><title>Day</title>
<path fill="none" stroke="black" d="M239.5,-406.5C239.5,-406.5 347.5,-406.5 347.5,-406.5 353.5,-406.5 359.5,-412.5 359.5,-418.5 359.5,-418.5 359.5,-485.5 359.5,-485.5 359.5,-491.5 353.5,-497.5 347.5,-497.5 347.5,-497.5 239.5,-497.5 239.5,-497.5 233.5,-497.5 227.5,-491.5 227.5,-485.5 227.5,-485.5 227.5,-418.5 227.5,-418.5 227.5,-412.5 233.5,-406.5 239.5,-406.5"/>
<text text-anchor="middle" x="293.5" y="-482.3" font-family="Times New Roman,serif" font-size="14.00">Day</text>
<polyline fill="none" stroke="black" points="227.5,-474.5 359.5,-474.5 "/>
<text text-anchor="start" x="235.5" y="-459.3" font-family="Times New Roman,serif" font-size="14.00">id :INTEGER</text>
<text text-anchor="start" x="235.5" y="-444.3" font-family="Times New Roman,serif" font-size="14.00">date :date</text>
<text text-anchor="start" x="235.5" y="-429.3" font-family="Times New Roman,serif" font-size="14.00">created_at :datetime</text>
<text text-anchor="start" x="235.5" y="-414.3" font-family="Times New Roman,serif" font-size="14.00">updated_at :datetime</text>
</g>
<!-- Day&#45;&gt;Appointment -->
<g id="edge1" class="edge"><title>Day&#45;&gt;Appointment</title>
<path fill="none" stroke="#6d738d" d="M272.545,-398.531C269.621,-389.168 267.079,-379.4 265.5,-370 249.893,-277.079 252.175,-251.275 265.5,-158 266.74,-149.321 268.58,-140.331 270.735,-131.49"/>
<ellipse fill="none" stroke="#6d738d" cx="273.836" cy="-402.481" rx="4.00001" ry="4.00001"/>
<polygon fill="#6d738d" stroke="#6d738d" points="270.79,-131.28 277.645,-122.721 272.039,-126.438 273.288,-121.597 273.288,-121.597 273.288,-121.597 272.039,-126.438 268.93,-120.473 270.79,-131.28 270.79,-131.28"/>
</g>
<!-- Location -->
<g id="node4" class="node"><title>Location</title>
<path fill="none" stroke="black" d="M286.5,-158.5C286.5,-158.5 394.5,-158.5 394.5,-158.5 400.5,-158.5 406.5,-164.5 406.5,-170.5 406.5,-170.5 406.5,-357.5 406.5,-357.5 406.5,-363.5 400.5,-369.5 394.5,-369.5 394.5,-369.5 286.5,-369.5 286.5,-369.5 280.5,-369.5 274.5,-363.5 274.5,-357.5 274.5,-357.5 274.5,-170.5 274.5,-170.5 274.5,-164.5 280.5,-158.5 286.5,-158.5"/>
<text text-anchor="middle" x="340.5" y="-354.3" font-family="Times New Roman,serif" font-size="14.00">Location</text>
<polyline fill="none" stroke="black" points="274.5,-346.5 406.5,-346.5 "/>
<text text-anchor="start" x="282.5" y="-331.3" font-family="Times New Roman,serif" font-size="14.00">id :INTEGER</text>
<text text-anchor="start" x="282.5" y="-316.3" font-family="Times New Roman,serif" font-size="14.00">client :text</text>
<text text-anchor="start" x="282.5" y="-301.3" font-family="Times New Roman,serif" font-size="14.00">city :text</text>
<text text-anchor="start" x="282.5" y="-286.3" font-family="Times New Roman,serif" font-size="14.00">ranchfield :text</text>
<text text-anchor="start" x="282.5" y="-271.3" font-family="Times New Roman,serif" font-size="14.00">grower :text</text>
<text text-anchor="start" x="282.5" y="-256.3" font-family="Times New Roman,serif" font-size="14.00">siteblock :text</text>
<text text-anchor="start" x="282.5" y="-241.3" font-family="Times New Roman,serif" font-size="14.00">variety :text</text>
<text text-anchor="start" x="282.5" y="-226.3" font-family="Times New Roman,serif" font-size="14.00">acres :integer</text>
<text text-anchor="start" x="282.5" y="-211.3" font-family="Times New Roman,serif" font-size="14.00">latitude :float</text>
<text text-anchor="start" x="282.5" y="-196.3" font-family="Times New Roman,serif" font-size="14.00">longitude :float</text>
<text text-anchor="start" x="282.5" y="-181.3" font-family="Times New Roman,serif" font-size="14.00">created_at :datetime</text>
<text text-anchor="start" x="282.5" y="-166.3" font-family="Times New Roman,serif" font-size="14.00">updated_at :datetime</text>
</g>
<!-- Day&#45;&gt;Location -->
<g id="edge2" class="edge"><title>Day&#45;&gt;Location</title>
<path fill="none" stroke="#d36687" d="M307.237,-396.636C308.627,-391.135 310.073,-385.415 311.548,-379.574"/>
<polygon fill="#d36687" stroke="#d36687" points="307.208,-396.753 300.395,-405.346 305.983,-401.601 304.758,-406.448 304.758,-406.448 304.758,-406.448 305.983,-401.601 309.121,-407.551 307.208,-396.753 307.208,-396.753"/>
<polygon fill="#d36687" stroke="#d36687" points="311.606,-379.344 318.419,-370.752 312.831,-374.497 314.056,-369.649 314.056,-369.649 314.056,-369.649 312.831,-374.497 309.694,-368.547 311.606,-379.344 311.606,-379.344"/>
</g>
<!-- Location&#45;&gt;Appointment -->
<g id="edge3" class="edge"><title>Location&#45;&gt;Appointment</title>
<path fill="none" stroke="#e3c7c5" d="M314.178,-150.43C312.698,-144.101 311.233,-137.837 309.808,-131.741"/>
<ellipse fill="none" stroke="#e3c7c5" cx="315.126" cy="-154.484" rx="4.00001" ry="4.00001"/>
<polygon fill="#e3c7c5" stroke="#e3c7c5" points="309.726,-131.394 311.831,-120.632 308.588,-126.525 307.449,-121.656 307.449,-121.656 307.449,-121.656 308.588,-126.525 303.068,-122.681 309.726,-131.394 309.726,-131.394"/>
</g>
</g>
</svg>
